<svg version="1.2" xmlns="http://www.w3.org/2000/svg" viewBox="0 0 300 109" width="300" height="109"><style>.a{fill:#263872}.b{fill:#fff}.c{fill:#ec8b5d}</style><path class="a" d="m17.9 13.6c0 0 0.9 0.6 1.2 0.7v9.7h-1.2z"/><path class="a" d="m18.1 24.3h1c0.5 0 0.4 0.6 0.4 0.8 0 0.2 0.1 0.9-0.3 0.9-0.3 0.1-0.8 0-1.1 0-0.3 0-0.6 0-0.6-0.4v-1c0-0.3 0.2-0.3 0.6-0.3z"/><path class="a" d="m20 30.8h0.4l-1.2-4.2h-1.4l-1.2 4.2h2.8z"/><path class="a" d="m7.1 10.2l48.4-6.7 50.2 6.7-23.2 6.2-0.1 5.3c0 0 14.8 6.3 17.3 20.4 2.3 13.2-2.8 23.6-7.5 29.3l-0.3 32.2h-49.4v-11c0 0-10.7 0.5-14.4-3.3-3.7-3.7-4.3-8.7-3.3-14.8l-11.5-0.3c0 0 3.2-9.9 5.4-15.7 2.2-5.8 2.6-8.6 2.6-11.8 0-3.2 6-14.9 8.7-17.8l0.2-11.8z"/><path class="b" d="m43.9 72.9c0 0-3.8 21.1 18.5 17.6v12h28.3v-31.8c0 0 15-17.1 3.1-37.4 0 0-6.7-13-29.9-12.2-23.9 0.8-22.7 29.2-22.7 29.2l-7.8 22.3z"/><path class="c" d="m49.6 58.5c-2.1 0-3.8-1.7-3.8-3.8 0-2.1 1.7-3.8 3.8-3.8 2.1 0 3.8 1.7 3.8 3.8 0 2.1-1.7 3.8-3.8 3.8z"/><path class="b" d="m28.5 58.5c-2.1 0-3.8-1.7-3.8-3.8 0-2.1 1.7-3.8 3.8-3.8 2.1 0 3.8 1.7 3.8 3.8 0 2.1-1.7 3.8-3.8 3.8z"/><path class="c" d="m56.2 47.6c-0.3 0-1.1-0.7-1.4-0.8-1.2-0.9-4.2-3.2-3.5-6.3 0.7-2.6 2.1-3.8 2.9-4.2q0.4-0.3 0.6-0.7c0.5-1.3 2-4.5 4.7-4.7 3.3-0.2 3.6-1.1 4.2-2 0.6-0.8 2.8-1.6 4.4-1.1 1.7 0.5 2.7 0.8 3.4 0.4 0.6-0.5 4.7-0.9 6.2 0.1 1.5 1 3.2 1 4.1 1 0.9 0.1 3.8 2.3 4 3.1 0.2 0.8 3.6 2.6 3.9 4.9 0.2 2.2 0.2 4 0.9 4.7 0.7 0.6 0 3.8-0.7 5.6-0.7 1.7-1.7 4.1-3.4 5.5-1.6 1.4-3.5 2.8-4.2 4.1-0.3 0.7-0.5 1.8-0.6 2.6 0 0.8-0.7 1.4-1.4 1.4h-3.8c-0.9 0-1.5-0.7-1.5-1.5 0-2.1 0.1-6 0.1-6.9 0.1-1.2-1.7-2.5-2.7-3.6-0.9-1.1-1.5-1.3-3.6-2-2.1-0.6-4.3-0.2-5 0-0.7 0.3-1.7-0.2-2.6-0.4-0.9-0.2-1.4 0.8-2.3 0.8-0.6 0-2 0-2.7 0z"/><path class="a" d="m113.6 54.1l-2.3 2q-1.1-1.6-2.4-1.6-0.5 0-0.9 0.3-0.4 0.3-0.4 0.7 0 0.4 0.3 0.8 0.3 0.4 2.2 2 1.7 1.4 2.1 1.8 0.9 1 1.3 1.8 0.4 0.8 0.4 1.9 0 1.9-1.4 3.2-1.3 1.3-3.5 1.3-1.7 0-3-0.9-1.2-0.8-2.1-2.6l2.5-1.5q1.2 2.1 2.7 2.1 0.7 0 1.3-0.5 0.5-0.4 0.5-1 0-0.6-0.4-1.1-0.4-0.5-1.8-1.6-2.5-2.2-3.3-3.3-0.8-1.2-0.8-2.3 0-1.7 1.3-2.8 1.3-1.2 3.1-1.2 1.2 0 2.3 0.5 1 0.6 2.3 2z"/><path fill-rule="evenodd" class="a" d="m116.9 52h3.2q2.7 0 3.8 0.4 1.1 0.5 1.8 1.6 0.6 1.1 0.6 2.6 0 1.6-0.7 2.6-0.8 1.1-2.3 1.6l3.8 7.1h-3.3l-3.6-6.8h-0.3v6.8h-3zm3 6.2h1q1.4 0 2-0.4 0.5-0.4 0.5-1.3 0-0.5-0.3-0.9-0.2-0.4-0.7-0.5-0.4-0.2-1.6-0.2h-0.9z"/><path class="a" d="m129.5 52h8.7v2.9h-5.7v2.9h5.7v2.9h-5.7v4.2h5.7v3h-8.7z"/><path class="a" d="m149.3 54.1l-2.2 2q-1.2-1.6-2.4-1.6-0.6 0-1 0.3-0.4 0.3-0.4 0.7 0 0.4 0.3 0.8 0.4 0.4 2.2 2 1.7 1.4 2.1 1.8 0.9 1 1.3 1.8 0.4 0.8 0.4 1.9 0 1.9-1.4 3.2-1.3 1.3-3.5 1.3-1.7 0-2.9-0.9-1.3-0.8-2.2-2.6l2.6-1.5q1.1 2.1 2.6 2.1 0.8 0 1.3-0.5 0.5-0.4 0.5-1 0-0.6-0.4-1.1-0.4-0.5-1.7-1.6-2.6-2.2-3.4-3.3-0.7-1.2-0.7-2.3 0-1.7 1.2-2.8 1.3-1.2 3.1-1.2 1.2 0 2.3 0.5 1 0.6 2.3 2z"/><path class="a" d="m152.4 52h3.1v6h5.3v-6h3v15.9h-3v-7h-5.3v7h-3.1z"/><path class="a" d="m165.9 52h8.7v3h-2.8v12.9h-3.1v-12.9h-2.8z"/><path fill-rule="evenodd" class="a" d="m181.5 52h3.1l6.1 15.9h-3.1l-1.3-3.3h-6.4l-1.3 3.3h-3.2zm1.6 4.2l-2.1 5.4h4.2z"/><path class="c" d="m199.2 52h8.6v2.9h-5.6v2.9h5.6v2.9h-5.6v4.2h5.6v3h-8.6z"/><path fill-rule="evenodd" class="c" d="m210.7 52h3.5q3.5 0 5.2 0.8 1.6 0.9 2.7 2.8 1.1 2 1.1 4.5 0 1.9-0.6 3.4-0.6 1.5-1.7 2.6-1 1-2.3 1.4-1.2 0.4-4.3 0.4h-3.6c0 0 0-15.9 0-15.9zm3 2.9v10h1.4q2 0 3-0.5 0.9-0.4 1.5-1.6 0.6-1.1 0.6-2.7 0-2.6-1.4-4-1.3-1.2-4.1-1.2c0 0-1 0-1 0z"/><path class="c" d="m226 52h3v10.2q0 1.4 0.2 1.9 0.3 0.6 0.8 0.9 0.5 0.3 1.3 0.3 0.8 0 1.4-0.3 0.5-0.4 0.8-1 0.2-0.5 0.2-2.1v-9.9h3v9.4q0 2.4-0.3 3.4-0.2 0.9-1 1.8-0.7 0.8-1.7 1.2-1 0.5-2.3 0.5-1.8 0-3-0.8-1.3-0.8-1.9-2-0.5-1.2-0.5-4.1c0 0 0-9.4 0-9.4z"/><path class="c" d="m238.7 52h8.7v3h-2.9v12.9h-3v-12.9h-2.8c0 0 0-3 0-3z"/><path class="c" d="m249.5 52h8.6v2.9h-5.6v2.9h5.6v2.9h-5.6v4.2h5.6v3h-8.6z"/><path class="c" d="m275.5 54.8l-2.1 2q-2.2-2.3-4.9-2.3-2.2 0-3.8 1.6-1.5 1.5-1.5 3.8 0 1.6 0.7 2.8 0.6 1.2 1.9 1.9 1.3 0.7 2.8 0.7 1.3 0 2.4-0.4 1.1-0.5 2.4-1.8l2 2.1q-1.7 1.7-3.3 2.4-1.5 0.7-3.6 0.7-3.6 0-6-2.4-2.3-2.3-2.3-6 0-2.4 1-4.2 1.1-1.9 3.1-3 2-1.1 4.3-1.1 2 0 3.8 0.8 1.8 0.8 3.1 2.4z"/><path class="c" d="m278.1 52h3.1v6h5.3v-6h3v15.9h-3v-7h-5.3v7h-3.1z"/><path class="a" d="m288.9 90.9c0 4.8-3.9 8.6-8.7 8.6h-70.1c-4.8 0-8.7-3.8-8.7-8.6v-7.2c0-4.8 3.9-8.7 8.7-8.7h70.1c4.8 0 8.7 3.9 8.7 8.7v7.2z"/><path class="b" d="m207.1 82.2h0.8v8.2h-0.8z"/><path fill-rule="evenodd" class="b" d="m213.7 82q1.8 0 3.1 1.3 1.2 1.2 1.2 3 0 1.8-1.2 3.1-1.3 1.2-3 1.2-1.9 0-3.1-1.2-1.3-1.3-1.3-3 0-1.2 0.6-2.2 0.6-1 1.6-1.6 0.9-0.6 2.1-0.6zm0 0.8q-0.9 0-1.7 0.5-0.8 0.5-1.3 1.3-0.4 0.8-0.4 1.8 0 1.4 1 2.4 1 1 2.4 1 1 0 1.8-0.4 0.8-0.5 1.2-1.3 0.5-0.8 0.5-1.8 0-1-0.5-1.7-0.4-0.8-1.2-1.3-0.9-0.5-1.8-0.5z"/><path class="b" d="m218.9 83v-0.8h4.4v0.8h-1.8v7.4h-0.8v-7.4z"/><path fill-rule="evenodd" class="b" d="m233.8 87.4l0.5 0.6q-0.5 0.4-1 0.8 0.4 0.3 0.9 0.8 0.4 0.5 0.7 0.8h-1.1l-1.1-1.1q-1 0.8-1.6 1.1-0.7 0.2-1.4 0.2-0.9 0-1.5-0.5-0.6-0.6-0.6-1.4 0-0.6 0.4-1.2 0.4-0.6 1.6-1.6-0.7-0.8-0.9-1.2-0.2-0.3-0.2-0.7 0-0.6 0.5-1 0.5-0.5 1.4-0.5 0.5 0 0.9 0.2 0.4 0.2 0.6 0.6 0.3 0.3 0.3 0.7 0 0.4-0.3 0.9-0.3 0.5-1.2 1.2l1.3 1.3 0.8 0.8q0.6-0.5 1-0.8zm-3.7-0.8q-1 0.7-1.3 1.2-0.4 0.5-0.4 0.9 0 0.4 0.4 0.8 0.4 0.3 1 0.3 0.4 0 0.8-0.1 0.7-0.3 1.6-1l-1.3-1.3q-0.4-0.4-0.8-0.8zm0.1-1.1q0.6-0.5 0.9-0.9 0.2-0.3 0.2-0.6 0-0.3-0.2-0.5-0.3-0.2-0.8-0.2-0.4 0-0.7 0.2-0.3 0.2-0.3 0.5 0 0.3 0.2 0.4 0.2 0.5 0.7 1.1z"/><path fill-rule="evenodd" class="b" d="m241 82.2q1.4 0 1.9 0.2 0.7 0.1 1.1 0.7 0.5 0.5 0.5 1.3 0 0.7-0.3 1.2-0.3 0.5-0.9 0.8-0.6 0.2-1.6 0.2l2.9 3.8h-1l-2.9-3.8h-0.5v3.8h-0.8c0 0 0-8.2 0-8.2zm-0.8 0.8v2.8h1.4q0.8 0 1.2-0.1 0.4-0.2 0.6-0.5 0.2-0.4 0.2-0.8 0-0.4-0.2-0.7-0.2-0.4-0.6-0.5-0.3-0.2-1.2-0.2c0 0-1.4 0-1.4 0z"/><path fill-rule="evenodd" class="b" d="m249 84.2q1.4 0 2.3 1 0.8 0.9 0.8 2.2 0 1.3-0.9 2.2-0.9 1-2.2 1-1.4 0-2.3-1-0.9-0.9-0.9-2.2 0-1.2 0.8-2.2 1-1 2.4-1zm0 0.8q-1 0-1.7 0.7-0.7 0.7-0.7 1.7 0 0.7 0.3 1.2 0.3 0.6 0.9 0.9 0.5 0.3 1.2 0.3 0.6 0 1.1-0.3 0.6-0.3 0.9-0.9 0.3-0.5 0.3-1.2 0-1-0.7-1.7-0.7-0.7-1.6-0.7z"/><path fill-rule="evenodd" class="b" d="m253.6 90.4v-8.4h0.8v3.4q0.4-0.6 1-0.9 0.7-0.3 1.4-0.3 1.2 0 2.2 0.9 0.9 1 0.9 2.3 0 1.3-1 2.2-0.9 1-2.2 1-0.7 0-1.3-0.4-0.6-0.3-1-0.9v1.1c0 0-0.8 0-0.8 0zm3.1-0.6q0.6 0 1.2-0.3 0.5-0.3 0.8-0.9 0.4-0.6 0.4-1.2 0-0.7-0.4-1.2-0.3-0.6-0.8-1-0.6-0.3-1.2-0.3-0.6 0-1.2 0.3-0.6 0.4-0.9 0.9-0.3 0.6-0.3 1.3 0 1 0.7 1.7 0.7 0.7 1.7 0.7z"/><path fill-rule="evenodd" class="b" d="m264.1 84.2q1.4 0 2.3 1 0.9 0.9 0.9 2.2 0 1.3-0.9 2.2-0.9 1-2.3 1-1.4 0-2.2-1-0.9-0.9-0.9-2.2 0-1.2 0.8-2.2 0.9-1 2.3-1zm0 0.8q-0.9 0-1.6 0.7-0.7 0.7-0.7 1.7 0 0.7 0.3 1.2 0.3 0.6 0.8 0.9 0.6 0.3 1.2 0.3 0.7 0 1.2-0.3 0.5-0.3 0.9-0.9 0.3-0.5 0.3-1.2 0-1-0.7-1.7-0.7-0.7-1.7-0.7z"/><path class="b" d="m269.4 82.1h0.7v2.3h1.3v0.6h-1.3v5.4h-0.7v-5.4h-1.1v-0.6h1.1z"/><path class="b" d="m272.8 81.9q0.3 0 0.5 0.2 0.1 0.2 0.1 0.4 0 0.3-0.1 0.5-0.2 0.2-0.5 0.2-0.3 0-0.4-0.2-0.2-0.2-0.2-0.5 0-0.2 0.2-0.4 0.1-0.2 0.4-0.2zm-0.4 2.5h0.8v6h-0.8z"/><path class="b" d="m280.7 85.6l-0.7 0.4q-0.8-1.1-2.1-1.1-1.1 0-1.9 0.8-0.7 0.7-0.7 1.7 0 0.6 0.3 1.2 0.4 0.6 1 0.9 0.5 0.3 1.3 0.3 1.3 0 2.1-1l0.7 0.4q-0.5 0.6-1.2 1-0.7 0.4-1.7 0.4-1.4 0-2.3-0.9-1-1-1-2.3 0-0.8 0.5-1.6 0.4-0.7 1.2-1.2 0.7-0.4 1.7-0.4 0.6 0 1.2 0.2 0.5 0.2 0.9 0.5 0.4 0.3 0.7 0.7z"/><path class="b" d="m285.2 85l-0.5 0.5q-0.6-0.6-1.2-0.6-0.4 0-0.7 0.3-0.3 0.2-0.3 0.6 0 0.3 0.3 0.5 0.2 0.3 0.9 0.7 0.9 0.4 1.2 0.8 0.3 0.5 0.3 1 0 0.7-0.5 1.2-0.6 0.6-1.3 0.6-0.6 0-1-0.3-0.5-0.2-0.8-0.6l0.5-0.5q0.6 0.6 1.2 0.6 0.5 0 0.8-0.3 0.3-0.3 0.3-0.7 0-0.3-0.2-0.6-0.2-0.2-0.9-0.6-0.9-0.4-1.2-0.8-0.3-0.5-0.3-1 0-0.7 0.5-1.1 0.5-0.5 1.2-0.5 0.8 0 1.7 0.8z"/><path fill-rule="evenodd" class="a" d="m288.6 38.4v6.4c0 2.8-2.2 5.1-5 5.1h-8.4c-2.8 0-5.1-2.3-5.1-5.1v-6.4c0-1 0.9-1.9 1.9-1.9h14.7c1.1 0 1.9 0.9 1.9 1.9zm-12.7 4.4c0-1-0.6-1.9-1.3-1.9-0.7 0-1.3 0.9-1.3 1.9 0 1.1 0.6 2 1.3 2 0.7 0 1.3-0.9 1.3-2zm5.1 3.3h-2.8c0 0.5 0.6 0.9 1.4 0.9 0.7 0 1.4-0.4 1.4-0.9zm4.5-3.3c0-1-0.6-1.9-1.3-1.9-0.7 0-1.3 0.9-1.3 1.9 0 1.1 0.6 2 1.3 2 0.7 0 1.3-0.9 1.3-2z"/><path class="a" d="m287.4 36h-16c0.1-1.3 1.2-2.2 2.5-2.2h11c0.7 0 1.3 0.2 1.8 0.7 0.4 0.4 0.6 0.9 0.7 1.5z"/><path class="c" d="m290.7 42.4c0 0.9-0.6 1.7-1.5 1.8v-3.7q0.6 0.1 1 0.5c0.3 0.4 0.5 0.8 0.5 1.4z"/><path class="c" d="m269.6 40.7v3.8c-0.9-0.2-1.5-1-1.5-1.9 0-0.9 0.6-1.7 1.5-1.9z"/><path class="c" d="m279.8 33.2h-0.8v-7.9c0-0.1 0.1-0.2 0.2-0.2h0.3c0.2 0 0.3 0.1 0.3 0.2z"/><path class="c" d="m279.4 25.8c-0.7 0-1.3-0.6-1.3-1.3 0-0.7 0.6-1.3 1.3-1.3 0.7 0 1.2 0.6 1.2 1.3 0 0.7-0.5 1.3-1.2 1.3z"/></svg>