<?xml version="1.0" encoding="utf-8"?>
<!-- Generator: Adobe Illustrator 16.0.0, SVG Export Plug-In . SVG Version: 6.00 Build 0)  -->
<!DOCTYPE svg PUBLIC "-//W3C//DTD SVG 1.1//EN" "http://www.w3.org/Graphics/SVG/1.1/DTD/svg11.dtd">
<svg version="1.1" id="Layer_1" xmlns="http://www.w3.org/2000/svg" xmlns:xlink="http://www.w3.org/1999/xlink" x="0px" y="0px"
	 width="1920px" height="180px" viewBox="0 0 1920 180" enable-background="new 0 0 1920 180" xml:space="preserve">
<path fill="#263773" d="M21.17,13.035c29.633-2.979,66.662,3.374,70.463,13.289c11.904-5.167,36.113-6.356,54.203-3.621
	c18.091,2.734,30.142,8.644,35.065,14.877c7.896-8.973,38.99-14.871,67.652-13.489c28.422,1.371,51.917,9.216,57.668,18.276
	c6.043-0.861,12.735-1.254,19.279-0.992c19.189,0.768,34.771,6.146,39.019,12.217c14.461-9.302,51.66-14.191,82.223-10.808
	c22.118,2.448,38.63,9.005,43.684,16.304c4.043-0.564,8.321-0.955,12.446-1.121c0.591-0.022,1.185-0.031,1.774-0.052
	c0.59-0.224,1.155-0.451,1.767-0.669c31.104-11.09,94.911-12.162,120.933,0.21c22.594-6.021,55.729-6.91,82.59-3.323
	c12.614-9.313,35.657-17.27,65.654-20.137c36.008-3.442,80.543,2.351,92.369,13.824c14.164-7.11,43.725-10.608,68.827-8.145
	c12.285,1.205,22.959,3.792,30.61,7.105c6.41-4.108,19.676-6.661,32.856-8.484c27.563-3.813,58.816-5.55,87.839-3.098
	c29.02,2.453,55.083,9.607,62.206,18.986c8.644-6.423,30.927-10.648,52.576-9.972c10.409,0.325,20.263,1.78,28.226,3.954
	c21.879-6.471,52.458-9.96,82.074-8.862c39.902,1.479,75.676,11.185,86.945,23.591c5.609-0.752,11.476-1.088,17.373-1.1
	c5.239-2.34,11.136-4.529,17.697-6.515c16.247-4.913,39.271-8.257,61.404-8.886c-1.542-2.619-1.229-5.334,1.455-7.863
	c10.277-9.686,45.855-15.003,77.279-13.428c21.246,1.063,40.25,4.691,55.752,9.566c1.815-1.686,4.689-3.24,8.738-4.516
	c20.408-6.432,58.395-4.421,74.619,3.144c-20.051-8.771-34.708-22.157-9.969-29.588c16.03-4.815,41.657-4.409,62.037-1.804
	c27.284,3.488,49.687,10.525,62.348,19.029c-0.548-1.632-0.59-3.272,0.121-4.916c2.504-5.782,17.557-11.451,35.646-10.99
	c9.485,0.24,17.855,2.061,25.067,4.06c12.804,3.547,22.062,7.242,30.31,11.753V180H0V16.9C6.445,15.092,12.869,13.869,21.17,13.035z
	"/>
</svg>
